<svg aria-hidden="true" style="position: absolute; width: 0; height: 0; overflow: hidden;" version="1.1" xmlns="http://www.w3.org/2000/svg" xmlns:xlink="http://www.w3.org/1999/xlink">
<defs>
<symbol id="icon-group-3" viewBox="0 0 32 32">
<path fill-rule="evenodd" clip-rule="evenodd" d="M70 23L77.0078 29.6341L64 29.6265V61.8137H98V49.507L105 56.1338V23H70ZM97.6924 48.7283L77.8226 29.918H97.6924V48.7283ZM91.5231 57.1055H69.3801V35.4579H70.9453V55.6397H91.5231V57.1055ZM74.6089 66.0991L73.791 67.7837L72.9731 66.0991H72.2871L73.481 68.3452V69.6538H74.1011V68.3452L75.2925 66.0991H74.6089ZM75.6367 69.6538L75.9248 68.8262H77.3018L77.5923 69.6538H78.2368L76.8916 66.0991H76.3374L74.9946 69.6538H75.6367ZM76.6133 66.8535L77.1284 68.3281H76.0981L76.6133 66.8535ZM79.8701 68.2427C79.7806 68.3794 79.7358 68.5299 79.7358 68.6943C79.7358 68.9938 79.8408 69.2371 80.0508 69.4243C80.2624 69.6099 80.5439 69.7026 80.8955 69.7026C81.2471 69.7026 81.5498 69.6074 81.8037 69.417L82.0039 69.6538H82.6924L82.1699 69.0361C82.375 68.7562 82.4775 68.3973 82.4775 67.9595H81.9624C81.9624 68.1987 81.9128 68.416 81.8135 68.6113L81.1274 67.8008L81.3691 67.625C81.54 67.5013 81.6629 67.3776 81.7378 67.2539C81.8127 67.1286 81.8501 66.9919 81.8501 66.8438C81.8501 66.6191 81.7671 66.4312 81.6011 66.2798C81.4367 66.1268 81.2251 66.0503 80.9663 66.0503C80.6798 66.0503 80.452 66.1317 80.2827 66.2944C80.1134 66.4556 80.0288 66.6753 80.0288 66.9536C80.0288 67.0675 80.0557 67.1855 80.1094 67.3076C80.1647 67.4297 80.2616 67.5778 80.3999 67.752C80.1362 67.9408 79.9596 68.1043 79.8701 68.2427ZM81.4741 69.0288C81.3 69.1623 81.1128 69.229 80.9126 69.229C80.7352 69.229 80.5936 69.1777 80.4878 69.0752C80.382 68.9727 80.3291 68.8392 80.3291 68.6748C80.3291 68.4844 80.4268 68.3151 80.6221 68.167L80.6978 68.1133L81.4741 69.0288ZM80.8369 67.4541C80.6693 67.2474 80.5854 67.0757 80.5854 66.939C80.5854 66.8201 80.6196 66.7217 80.688 66.6436C80.7563 66.5654 80.8483 66.5264 80.9639 66.5264C81.0713 66.5264 81.16 66.5597 81.23 66.6265C81.3 66.6916 81.335 66.7705 81.335 66.8633C81.335 67.0033 81.2845 67.118 81.1836 67.2075L81.1079 67.2686L80.8369 67.4541ZM86.623 69.3853C86.8672 69.172 87.0072 68.8758 87.043 68.4966H86.4277C86.3952 68.7505 86.3179 68.932 86.1958 69.041C86.0737 69.1501 85.8914 69.2046 85.6489 69.2046C85.3836 69.2046 85.1818 69.1037 85.0435 68.9019C84.9067 68.7 84.8384 68.4071 84.8384 68.0229V67.708C84.8416 67.3288 84.9149 67.0415 85.0581 66.8462C85.203 66.6493 85.4097 66.5508 85.6782 66.5508C85.9093 66.5508 86.0843 66.6077 86.2031 66.7217C86.3236 66.834 86.3984 67.0179 86.4277 67.2734H87.043C87.0039 66.8844 86.8647 66.5833 86.6255 66.3701C86.3862 66.1569 86.0705 66.0503 85.6782 66.0503C85.3869 66.0503 85.1297 66.1195 84.9067 66.2578C84.6854 66.3962 84.5153 66.5931 84.3965 66.8486C84.2777 67.1042 84.2183 67.3996 84.2183 67.7349V68.0669C84.2231 68.394 84.2842 68.6813 84.4014 68.9287C84.5186 69.1761 84.6846 69.3674 84.8994 69.5024C85.1159 69.6359 85.3657 69.7026 85.6489 69.7026C86.0542 69.7026 86.3789 69.5968 86.623 69.3853ZM90.2534 68.8872C90.3739 68.6235 90.4341 68.3175 90.4341 67.9692V67.7715C90.4325 67.4248 90.3706 67.1213 90.2485 66.8608C90.1265 66.5988 89.9531 66.3986 89.7285 66.2603C89.5055 66.1203 89.2492 66.0503 88.9595 66.0503C88.6698 66.0503 88.4126 66.1211 88.188 66.2627C87.965 66.4027 87.7917 66.6053 87.668 66.8706C87.5459 67.1359 87.4849 67.4419 87.4849 67.7886V67.9888C87.4865 68.3289 87.5483 68.6292 87.6704 68.8896C87.7941 69.1501 87.9683 69.3511 88.1929 69.4927C88.4191 69.6326 88.6763 69.7026 88.9644 69.7026C89.2557 69.7026 89.5129 69.6326 89.7358 69.4927C89.9604 69.3511 90.133 69.1493 90.2534 68.8872ZM89.5918 66.8779C89.7415 67.0879 89.8164 67.3898 89.8164 67.7837V67.9692C89.8164 68.3696 89.7423 68.674 89.5942 68.8823C89.4478 69.0907 89.2378 69.1948 88.9644 69.1948C88.6942 69.1948 88.4826 69.0882 88.3296 68.875C88.1782 68.6618 88.1025 68.3599 88.1025 67.9692V67.7642C88.1058 67.3817 88.1823 67.0863 88.332 66.8779C88.4834 66.668 88.6925 66.563 88.9595 66.563C89.2329 66.563 89.4437 66.668 89.5918 66.8779Z" fill="#AFB1B8"/>

</symbol>
<symbol id="icon-group-2" viewBox="0 0 32 32">
<path d="M14.224 1.806h-0.084c-0.129-0.008-0.258-0.011-0.388-0.014v0h-0.28c-0.244 0-0.494 0.006-0.741 0.019-0.019-0.001-0.037-0.001-0.056 0-2.243 0.127-4.44 0.688-6.471 1.651l-0.266 0.128v13.625l0.623-0.211c0.546-0.188 1.129-0.357 1.731-0.513 1.629-0.418 3.301-0.64 4.982-0.662v1.79c-0.223 0.002-0.439 0.008-0.655 0.019h-0.051c-1.294 0.071-2.577 0.268-3.833 0.588-1.59 0.398-3.124 0.996-4.566 1.779v-17.475c1.497-0.873 3.11-1.529 4.79-1.948 1.475-0.381 2.992-0.576 4.515-0.582h0.263c0.314 0.008 0.621 0.022 0.909 0.044 0.759 0.053 1.511 0.173 2.249 0.358v1.762c-0.717-0.167-1.445-0.277-2.179-0.329-0.015-0.001-0.030-0.003-0.045-0.004-0.152-0.013-0.304-0.026-0.446-0.026zM17.325 3.607c0.391 0.030 0.796 0.044 1.205 0.044 1.601-0.006 3.195-0.21 4.747-0.609 1.589-0.4 3.123-0.998 4.564-1.781v17.163c-1.498 0.873-3.111 1.529-4.792 1.948-1.475 0.379-2.992 0.574-4.515 0.581-1.154 0.009-2.304-0.126-3.425-0.404v-17.275c0.265 0.061 0.537 0.117 0.814 0.164 0.455 0.077 0.934 0.133 1.401 0.167zM26.060 3.74l-0.623 0.21c-0.573 0.192-1.15 0.365-1.731 0.518-1.691 0.434-3.428 0.657-5.173 0.663-0.406 0-0.78-0.011-1.141-0.034l-0.497-0.033v14.017l0.427 0.038c0.395 0.034 0.803 0.052 1.214 0.052 1.374-0.006 2.743-0.183 4.074-0.527 1.096-0.275 2.162-0.658 3.184-1.144l0.266-0.128v-13.63z"></path>
<path d="M5.377 25.977c-0.090-0.093-0.197-0.166-0.317-0.214s-0.247-0.071-0.376-0.066c-0.137-0.002-0.273 0.024-0.4 0.075-0.117 0.046-0.222 0.116-0.311 0.205s-0.156 0.196-0.201 0.313c-0.049 0.123-0.073 0.254-0.072 0.387v2.335c-0.006 0.165 0.026 0.328 0.092 0.479 0.055 0.12 0.135 0.226 0.234 0.313 0.093 0.079 0.203 0.135 0.321 0.166 0.114 0.032 0.231 0.048 0.349 0.049 0.13 0.001 0.259-0.027 0.377-0.081 0.117-0.051 0.222-0.124 0.311-0.216 0.087-0.091 0.156-0.197 0.204-0.313 0.050-0.118 0.075-0.244 0.075-0.372v-0.261h-0.61v0.208c0.002 0.071-0.010 0.142-0.036 0.208-0.020 0.050-0.050 0.095-0.089 0.131-0.038 0.031-0.081 0.053-0.128 0.067-0.041 0.014-0.084 0.021-0.128 0.022-0.054 0.006-0.11-0.002-0.16-0.024s-0.094-0.057-0.126-0.101c-0.058-0.094-0.086-0.203-0.081-0.313v-2.177c-0.004-0.121 0.022-0.241 0.075-0.349 0.032-0.049 0.077-0.089 0.129-0.114s0.112-0.034 0.17-0.027c0.053-0.002 0.105 0.009 0.152 0.032s0.089 0.057 0.12 0.099c0.068 0.090 0.104 0.2 0.101 0.313v0.202h0.604v-0.238c0.001-0.14-0.024-0.278-0.075-0.408-0.045-0.122-0.114-0.234-0.204-0.329z"></path>
<path d="M9.002 25.95c-0.195-0.164-0.44-0.255-0.694-0.257-0.124 0-0.248 0.023-0.364 0.066-0.119 0.042-0.228 0.107-0.322 0.191-0.101 0.091-0.182 0.202-0.237 0.327-0.061 0.143-0.092 0.297-0.089 0.452v2.239c-0.004 0.158 0.026 0.314 0.089 0.459 0.055 0.12 0.136 0.227 0.237 0.313 0.093 0.087 0.203 0.154 0.322 0.197 0.117 0.043 0.24 0.065 0.364 0.066s0.248-0.023 0.364-0.066c0.121-0.044 0.233-0.111 0.33-0.197 0.097-0.087 0.176-0.194 0.23-0.313 0.063-0.145 0.093-0.301 0.089-0.459v-2.239c0.003-0.155-0.027-0.31-0.089-0.452-0.054-0.123-0.133-0.235-0.23-0.327zM8.718 28.969c0.005 0.060-0.003 0.12-0.024 0.176s-0.054 0.107-0.097 0.148c-0.081 0.068-0.182 0.105-0.287 0.105s-0.207-0.037-0.287-0.105c-0.043-0.041-0.076-0.092-0.097-0.148s-0.029-0.116-0.024-0.176v-2.239c-0.005-0.060 0.003-0.12 0.024-0.176s0.054-0.107 0.097-0.148c0.081-0.068 0.182-0.105 0.287-0.105s0.207 0.037 0.287 0.105c0.043 0.041 0.076 0.092 0.097 0.148s0.029 0.116 0.024 0.176v2.239z"></path>
<path d="M13.764 29.969v-4.239h-0.587l-0.771 2.244h-0.011l-0.777-2.244h-0.581v4.239h0.606v-2.579h0.011l0.593 1.823h0.302l0.598-1.823h0.011v2.579h0.606z"></path>
<path d="M17.205 26.027c-0.093-0.105-0.211-0.184-0.343-0.232-0.142-0.046-0.29-0.068-0.439-0.066h-0.9v4.239h0.604v-1.656h0.311c0.189 0.009 0.376-0.031 0.545-0.116 0.137-0.076 0.252-0.188 0.332-0.324 0.070-0.113 0.117-0.238 0.139-0.369 0.024-0.16 0.035-0.321 0.033-0.482 0.006-0.204-0.014-0.407-0.059-0.606-0.040-0.147-0.117-0.281-0.223-0.39zM16.894 27.319c-0.003 0.077-0.022 0.152-0.056 0.221-0.035 0.065-0.089 0.117-0.156 0.149-0.089 0.040-0.187 0.058-0.285 0.053h-0.276v-1.441h0.311c0.094-0.005 0.187 0.014 0.272 0.053 0.062 0.036 0.112 0.091 0.142 0.157 0.033 0.074 0.051 0.155 0.053 0.236 0 0.089 0 0.183 0 0.282s0.006 0.2 0 0.291h-0.006z"></path>
<path d="M20.066 25.73h-0.495l-0.934 4.239h0.604l0.177-0.911h0.823l0.177 0.911h0.604l-0.957-4.239zM19.509 28.481l0.297-1.537h0.011l0.296 1.537h-0.604z"></path>
<path d="M23.969 28.284h-0.011l-0.912-2.554h-0.581v4.239h0.604v-2.549h0.012l0.923 2.549h0.568v-4.239h-0.604v2.554z"></path>
<path d="M27.66 25.73l-0.486 1.685h-0.012l-0.486-1.685h-0.64l0.83 2.447v1.792h0.604v-1.792l0.83-2.447h-0.64z"></path>
<path d="M3.692 31.166h0.291v0.817h0.198v-0.817h0.29v-0.167h-0.778v0.167z"></path>
<path d="M6.14 30.998l-0.381 0.984h0.21l0.081-0.224h0.392l0.084 0.224h0.215l-0.391-0.984h-0.21zM6.108 31.593l0.134-0.365 0.134 0.365h-0.268z"></path>
<path d="M8.559 31.62h0.227v0.127c-0.066 0.053-0.149 0.082-0.233 0.083-0.040 0.002-0.079-0.005-0.116-0.021s-0.068-0.041-0.093-0.072c-0.052-0.075-0.078-0.165-0.073-0.257 0-0.219 0.095-0.329 0.283-0.329 0.050-0.005 0.099 0.008 0.14 0.037s0.070 0.071 0.082 0.12l0.195-0.038c-0.042-0.192-0.181-0.289-0.417-0.289-0.127-0.003-0.25 0.042-0.344 0.127-0.050 0.049-0.088 0.108-0.112 0.174s-0.034 0.135-0.029 0.205c-0.006 0.135 0.039 0.267 0.126 0.369 0.048 0.050 0.107 0.088 0.171 0.113s0.134 0.035 0.203 0.031c0.154 0.004 0.304-0.052 0.417-0.157v-0.388h-0.427v0.166z"></path>
<path d="M11.029 30.998h-0.199v0.984h0.69v-0.167h-0.49v-0.817z"></path>
<path d="M13.118 30.998h-0.199v0.984h0.199v-0.984z"></path>
<path d="M15.161 31.656l-0.403-0.657h-0.193v0.984h0.185v-0.643l0.395 0.643h0.198v-0.984h-0.182v0.657z"></path>
<path d="M17.007 31.549h0.49v-0.167h-0.49v-0.216h0.528v-0.167h-0.727v0.984h0.747v-0.167h-0.548v-0.266z"></path>
<path d="M21.484 31.387h-0.388v-0.388h-0.198v0.984h0.198v-0.43h0.388v0.43h0.198v-0.984h-0.198v0.388z"></path>
<path d="M23.342 31.549h0.492v-0.167h-0.492v-0.216h0.529v-0.167h-0.727v0.984h0.746v-0.167h-0.548v-0.266z"></path>
<path d="M25.86 31.549c0.171-0.027 0.258-0.117 0.258-0.274 0.005-0.042-0.001-0.084-0.018-0.123s-0.044-0.072-0.078-0.096c-0.089-0.045-0.189-0.065-0.288-0.058h-0.417v0.984h0.198v-0.412h0.039c0.042-0.003 0.084 0.005 0.123 0.022 0.029 0.018 0.053 0.043 0.070 0.072l0.215 0.313h0.237l-0.12-0.192c-0.053-0.095-0.128-0.176-0.218-0.236zM25.661 31.413h-0.146v-0.247h0.156c0.068-0.005 0.136 0.002 0.201 0.023 0.014 0.013 0.026 0.029 0.033 0.046s0.011 0.037 0.010 0.056c-0.001 0.019-0.006 0.038-0.015 0.055s-0.022 0.032-0.037 0.043c-0.065 0.020-0.133 0.028-0.201 0.023z"></path>
<path d="M27.76 31.549h0.49v-0.167h-0.49v-0.216h0.529v-0.167h-0.729v0.984h0.747v-0.167h-0.548v-0.266z"></path>
</symbol>
<symbol id="icon-Object-1" viewBox="0 0 32 32">
<path d="M5.267 30.294c0.011 0 0.022 0.003 0.033 0.007s0.020 0.010 0.027 0.017l0.155 0.148c-0.12 0.12-0.269 0.216-0.436 0.281-0.196 0.071-0.406 0.106-0.619 0.101-0.199 0.004-0.397-0.029-0.582-0.094-0.166-0.060-0.316-0.151-0.438-0.266-0.125-0.119-0.221-0.259-0.283-0.411-0.068-0.17-0.101-0.348-0.099-0.527-0.003-0.181 0.033-0.36 0.107-0.529 0.068-0.153 0.17-0.293 0.301-0.411 0.132-0.116 0.291-0.207 0.465-0.268 0.191-0.064 0.394-0.096 0.599-0.094 0.19-0.004 0.379 0.025 0.556 0.086 0.154 0.058 0.295 0.138 0.417 0.238l-0.13 0.158c-0.009 0.011-0.020 0.021-0.033 0.029-0.015 0.009-0.034 0.013-0.052 0.012-0.020-0.001-0.040-0.007-0.056-0.017l-0.070-0.042-0.097-0.054c-0.042-0.020-0.085-0.037-0.13-0.052-0.058-0.018-0.117-0.032-0.176-0.042-0.076-0.012-0.153-0.018-0.231-0.017-0.147-0.002-0.294 0.022-0.43 0.071-0.127 0.045-0.242 0.113-0.337 0.199-0.097 0.092-0.171 0.2-0.219 0.317-0.055 0.134-0.082 0.276-0.079 0.418-0.002 0.145 0.025 0.288 0.079 0.425 0.047 0.116 0.12 0.223 0.215 0.315 0.089 0.086 0.199 0.152 0.322 0.195 0.127 0.046 0.262 0.068 0.399 0.067 0.079 0.001 0.158-0.003 0.237-0.013 0.128-0.014 0.25-0.052 0.359-0.113 0.054-0.031 0.106-0.066 0.153-0.104 0.020-0.017 0.046-0.026 0.074-0.027z"></path>
<path d="M9.745 29.549c0.002 0.179-0.033 0.356-0.105 0.524-0.063 0.152-0.163 0.291-0.292 0.407s-0.286 0.207-0.458 0.267c-0.38 0.126-0.799 0.126-1.179 0-0.172-0.061-0.327-0.152-0.456-0.268-0.129-0.118-0.23-0.258-0.295-0.411-0.14-0.339-0.14-0.71 0-1.050 0.066-0.153 0.166-0.293 0.295-0.413 0.13-0.112 0.285-0.2 0.456-0.258 0.379-0.128 0.8-0.128 1.179 0 0.172 0.061 0.328 0.152 0.458 0.268 0.128 0.117 0.227 0.255 0.293 0.406 0.072 0.169 0.107 0.347 0.105 0.527zM9.338 29.549c0.003-0.143-0.022-0.285-0.074-0.421-0.043-0.116-0.114-0.224-0.207-0.315-0.091-0.087-0.203-0.154-0.328-0.199-0.276-0.092-0.581-0.092-0.857 0-0.125 0.044-0.237 0.112-0.328 0.199-0.095 0.091-0.166 0.198-0.209 0.315-0.099 0.274-0.099 0.568 0 0.842 0.044 0.117 0.115 0.224 0.209 0.315 0.091 0.086 0.203 0.153 0.328 0.197 0.276 0.090 0.581 0.090 0.857 0 0.125-0.044 0.237-0.111 0.328-0.197 0.093-0.092 0.164-0.199 0.207-0.315 0.052-0.136 0.077-0.278 0.074-0.421z"></path>
<path d="M12.801 29.991l0.041 0.094c0.015-0.034 0.029-0.064 0.045-0.094 0.015-0.032 0.032-0.063 0.050-0.093l0.991-1.565c0.019-0.027 0.037-0.044 0.056-0.049 0.026-0.007 0.054-0.010 0.081-0.008h0.293v2.545h-0.347v-1.871c0-0.024 0-0.051 0-0.079-0.002-0.029-0.002-0.058 0-0.088l-0.997 1.587c-0.013 0.024-0.033 0.044-0.058 0.058s-0.055 0.021-0.085 0.021h-0.056c-0.030 0-0.060-0.007-0.085-0.021s-0.046-0.034-0.058-0.058l-1.026-1.597c0 0.030 0 0.061 0 0.091s0 0.057 0 0.081v1.871h-0.335v-2.54h0.293c0.028-0.001 0.055 0.001 0.081 0.008 0.024 0.010 0.043 0.028 0.054 0.049l1.012 1.567c0.020 0.029 0.037 0.059 0.050 0.091z"></path>
<path d="M16.529 29.864v0.953h-0.388v-2.542h0.865c0.163-0.003 0.326 0.016 0.483 0.056 0.125 0.031 0.242 0.085 0.341 0.158 0.086 0.069 0.153 0.154 0.194 0.249 0.046 0.104 0.068 0.214 0.066 0.325 0.002 0.111-0.023 0.222-0.072 0.325-0.047 0.098-0.118 0.185-0.209 0.254-0.099 0.076-0.216 0.134-0.343 0.168-0.151 0.042-0.309 0.062-0.467 0.059l-0.469-0.007zM16.529 29.592h0.469c0.102 0.001 0.203-0.012 0.3-0.039 0.080-0.023 0.154-0.061 0.217-0.11 0.058-0.047 0.103-0.104 0.132-0.168 0.032-0.068 0.048-0.141 0.047-0.214 0.004-0.071-0.009-0.141-0.039-0.207s-0.076-0.125-0.136-0.174c-0.148-0.1-0.334-0.149-0.522-0.136h-0.469v1.048z"></path>
<path d="M21.741 30.821h-0.306c-0.031 0.001-0.061-0.007-0.085-0.024-0.022-0.016-0.039-0.036-0.050-0.059l-0.264-0.615h-1.324l-0.273 0.615c-0.010 0.022-0.027 0.042-0.049 0.057-0.025 0.017-0.056 0.026-0.087 0.025h-0.306l1.163-2.546h0.403l1.179 2.546zM19.821 29.876h1.093l-0.461-1.036c-0.035-0.078-0.064-0.158-0.087-0.239l-0.045 0.133c-0.014 0.040-0.029 0.078-0.043 0.108l-0.458 1.034z"></path>
<path d="M23.416 28.288c0.023 0.011 0.043 0.027 0.058 0.045l1.697 1.919c0-0.030 0-0.061 0-0.089s0-0.057 0-0.084v-1.803h0.347v2.545h-0.194c-0.028 0.001-0.055-0.004-0.079-0.015-0.024-0.012-0.045-0.028-0.062-0.047l-1.695-1.917c0.002 0.029 0.002 0.058 0 0.088 0 0.029 0 0.054 0 0.077v1.814h-0.347v-2.545h0.206c0.024-0.001 0.048 0.003 0.070 0.012z"></path>
<path d="M28.375 29.809v1.011h-0.388v-1.011l-1.072-1.533h0.347c0.030-0.002 0.059 0.006 0.083 0.022 0.021 0.016 0.039 0.036 0.052 0.057l0.671 0.989c0.027 0.042 0.050 0.081 0.070 0.118s0.035 0.072 0.049 0.108l0.050-0.11c0.019-0.040 0.041-0.079 0.066-0.116l0.661-0.996c0.014-0.020 0.031-0.038 0.050-0.054 0.023-0.017 0.053-0.027 0.083-0.025h0.351l-1.074 1.54z"></path>
<path d="M12.609 24.004c0.169 0.019 0.339 0.034 0.512 0.047 2.616-1.017 4.829-2.681 6.363-4.785s2.319-4.553 2.259-7.043l-2.883-2.505c0.586 2.651 0.312 5.39-0.792 7.913s-2.994 4.729-5.459 6.372z"></path>
<path d="M11.579 23.888l0.078 0.013c2.634-1.637 4.642-3.923 5.765-6.562s1.308-5.51 0.533-8.242l-4.106-3.568c1.661 2.933 2.33 6.215 1.928 9.464s-1.857 6.334-4.196 8.893z"></path>
<path d="M25.506 15.165c-0.698 2.735-2.392 5.202-4.832 7.035-0.712 0.538-1.481 1.017-2.296 1.432 1.986-0.507 3.812-1.404 5.337-2.621s2.707-2.723 3.456-4.4l-1.665-1.445z"></path>
<path d="M24.853 14.763l-2.371-2.060c-0.045 2.349-0.814 4.644-2.226 6.648s-3.416 3.642-5.803 4.745h0.012c0.532-0 1.064-0.028 1.592-0.083 2.231-0.791 4.202-2.050 5.737-3.664s2.586-3.533 3.060-5.586z"></path>
<path d="M11.923 4.026l-2.829-2.461c-2.529 0.849-4.704 2.342-6.24 4.282s-2.362 4.239-2.37 6.595v0c0.009 2.603 1.018 5.128 2.865 7.177s4.429 3.504 7.335 4.135c2.594-2.746 4.113-6.14 4.336-9.688s-0.862-7.065-3.097-10.040z"></path>
<path d="M31.388 14.384c-0.010-3.088-1.427-6.047-3.94-8.23s-5.919-3.414-9.473-3.423c-1.642-0.001-3.271 0.262-4.803 0.777l17.32 15.048c0.593-1.33 0.897-2.744 0.896-4.171z"></path>
</symbol>
<symbol id="icon-group-1" viewBox="0 0 32 32">
<path d="M4.949 13.027h-0.001c-0.903 0-1.635 0.65-1.635 1.453v0.001c0 0.802 0.732 1.453 1.635 1.453h0.001c0.903 0 1.635-0.65 1.635-1.453v-0.001c0-0.802-0.732-1.453-1.635-1.453z"></path>
<path d="M17.015 12.563c-0.003-1.114-0.502-2.182-1.388-2.97s-2.088-1.232-3.342-1.234v0c-1.254 0.002-2.457 0.446-3.344 1.234s-1.386 1.856-1.389 2.971v6.145c0 0 9.462-0.937 9.463-6.144v-0.001z"></path>
<path d="M0 20.725c0.002 0.775 0.35 1.518 0.967 2.067s1.453 0.857 2.325 0.86c0.872-0.002 1.708-0.311 2.325-0.859s0.964-1.291 0.967-2.066v-4.276c0 0-6.584 0.652-6.584 4.275zM3.292 21.491c-0.171 0-0.337-0.045-0.479-0.129s-0.252-0.204-0.317-0.344c-0.065-0.14-0.082-0.294-0.049-0.443s0.115-0.285 0.236-0.392 0.274-0.18 0.441-0.21c0.167-0.030 0.341-0.014 0.498 0.044s0.292 0.156 0.387 0.282c0.095 0.126 0.145 0.274 0.145 0.426 0 0.101-0.022 0.201-0.065 0.294s-0.107 0.178-0.187 0.25c-0.080 0.071-0.175 0.128-0.28 0.167s-0.217 0.059-0.331 0.059v-0.003z"></path>
<path d="M9.945 21.069h-0.635v0.656h-0.331v-1.606h1.046v0.268h-0.715v0.415h0.635v0.267zM11.536 20.958c0 0.158-0.028 0.297-0.084 0.416s-0.136 0.211-0.24 0.276c-0.104 0.065-0.223 0.097-0.357 0.097-0.133 0-0.252-0.032-0.356-0.096s-0.185-0.155-0.243-0.273c-0.057-0.119-0.086-0.256-0.087-0.41v-0.079c0-0.158 0.028-0.297 0.085-0.417s0.138-0.213 0.242-0.277c0.104-0.065 0.224-0.097 0.357-0.097s0.253 0.032 0.356 0.097c0.104 0.064 0.185 0.156 0.242 0.277s0.086 0.258 0.086 0.416v0.072zM11.201 20.886c0-0.168-0.030-0.296-0.090-0.384s-0.146-0.131-0.258-0.131c-0.111 0-0.197 0.043-0.257 0.13s-0.091 0.212-0.092 0.379v0.078c0 0.164 0.030 0.291 0.090 0.382s0.147 0.136 0.26 0.136c0.111 0 0.196-0.043 0.256-0.13s0.090-0.215 0.090-0.382v-0.078zM12.609 21.304c0-0.063-0.022-0.11-0.066-0.143s-0.124-0.069-0.238-0.106c-0.115-0.038-0.206-0.074-0.272-0.11-0.182-0.099-0.274-0.231-0.274-0.398 0-0.087 0.024-0.164 0.073-0.232s0.12-0.122 0.211-0.16c0.092-0.038 0.195-0.057 0.309-0.057s0.217 0.021 0.307 0.063c0.090 0.041 0.159 0.1 0.208 0.175s0.075 0.162 0.075 0.258h-0.331c0-0.074-0.023-0.131-0.069-0.171s-0.111-0.062-0.195-0.062c-0.081 0-0.144 0.017-0.189 0.052s-0.067 0.079-0.067 0.135c0 0.052 0.026 0.096 0.078 0.131s0.131 0.068 0.233 0.099c0.188 0.057 0.325 0.127 0.411 0.211s0.129 0.188 0.129 0.313c0 0.139-0.053 0.248-0.158 0.328s-0.247 0.118-0.425 0.118c-0.124 0-0.236-0.022-0.338-0.067s-0.179-0.108-0.233-0.186c-0.053-0.079-0.079-0.17-0.079-0.274h0.332c0 0.177 0.106 0.266 0.318 0.266 0.079 0 0.14-0.016 0.184-0.047s0.066-0.077 0.066-0.135zM14.375 20.387h-0.492v1.338h-0.331v-1.338h-0.485v-0.268h1.308v0.268zM15.531 21.029h-0.635v0.43h0.746v0.266h-1.076v-1.606h1.074v0.268h-0.743v0.383h0.635v0.259zM16.43 21.137h-0.264v0.588h-0.331v-1.606h0.597c0.19 0 0.336 0.042 0.439 0.127s0.154 0.204 0.154 0.358c0 0.11-0.024 0.201-0.072 0.275s-0.119 0.131-0.215 0.174l0.347 0.656v0.015h-0.355l-0.301-0.588zM16.166 20.869h0.267c0.083 0 0.147-0.021 0.193-0.063s0.068-0.101 0.068-0.175c0-0.076-0.022-0.135-0.065-0.179s-0.108-0.065-0.197-0.065h-0.266v0.482zM18.171 21.159v0.566h-0.331v-1.606h0.626c0.121 0 0.227 0.022 0.318 0.066s0.163 0.107 0.212 0.189c0.049 0.081 0.074 0.173 0.074 0.277 0 0.157-0.054 0.282-0.162 0.373s-0.256 0.136-0.447 0.136h-0.29zM18.171 20.891h0.296c0.088 0 0.154-0.021 0.2-0.062s0.070-0.1 0.070-0.176c0-0.079-0.023-0.142-0.070-0.191s-0.11-0.074-0.192-0.075h-0.303v0.504zM20.265 21.029h-0.635v0.43h0.746v0.266h-1.076v-1.606h1.074v0.268h-0.743v0.383h0.635v0.259zM21.8 20.387h-0.492v1.338h-0.331v-1.338h-0.485v-0.268h1.308v0.268zM22.956 21.029h-0.635v0.43h0.746v0.266h-1.076v-1.606h1.074v0.268h-0.743v0.383h0.635v0.259zM23.855 21.137h-0.264v0.588h-0.331v-1.606h0.597c0.19 0 0.336 0.042 0.439 0.127s0.154 0.204 0.154 0.358c0 0.11-0.024 0.201-0.072 0.275s-0.119 0.131-0.215 0.174l0.347 0.656v0.015h-0.355l-0.301-0.588zM23.591 20.869h0.267c0.083 0 0.147-0.021 0.193-0.063s0.068-0.101 0.068-0.175c0-0.076-0.022-0.135-0.065-0.179s-0.108-0.065-0.197-0.065h-0.266v0.482zM25.536 21.304c0-0.063-0.022-0.11-0.066-0.143s-0.124-0.069-0.238-0.106c-0.115-0.038-0.206-0.074-0.272-0.11-0.182-0.099-0.274-0.231-0.274-0.398 0-0.087 0.024-0.164 0.073-0.232s0.119-0.122 0.211-0.16c0.092-0.038 0.195-0.057 0.309-0.057s0.217 0.021 0.307 0.063c0.090 0.041 0.159 0.1 0.208 0.175s0.075 0.162 0.075 0.258h-0.331c0-0.074-0.023-0.131-0.069-0.171s-0.111-0.062-0.195-0.062c-0.081 0-0.144 0.017-0.189 0.052s-0.067 0.079-0.067 0.135c0 0.052 0.026 0.096 0.078 0.131s0.131 0.068 0.233 0.099c0.188 0.057 0.325 0.127 0.411 0.211s0.129 0.188 0.129 0.313c0 0.139-0.053 0.248-0.158 0.328s-0.247 0.118-0.425 0.118c-0.124 0-0.236-0.022-0.337-0.067s-0.179-0.108-0.233-0.186c-0.053-0.079-0.079-0.17-0.079-0.274h0.332c0 0.177 0.106 0.266 0.318 0.266 0.079 0 0.14-0.016 0.184-0.047s0.066-0.077 0.066-0.135z"></path>
</symbol>
<symbol id="icon-group" viewBox="0 0 32 32">
<path d="M2.416 23.738c0.124 0.14 0.19 0.316 0.186 0.496 0.006 0.118-0.016 0.235-0.066 0.344s-0.126 0.205-0.222 0.283c-0.24 0.166-0.538 0.248-0.839 0.229h-1.475v-3.145h1.445c0.285-0.017 0.568 0.056 0.8 0.209 0.093 0.072 0.167 0.162 0.216 0.264s0.071 0.213 0.064 0.324c0.008 0.173-0.051 0.344-0.168 0.481-0.112 0.125-0.267 0.212-0.44 0.246 0.196 0.033 0.372 0.128 0.498 0.269zM0.686 23.264h0.617c0.14 0.009 0.28-0.028 0.393-0.104 0.046-0.038 0.082-0.086 0.105-0.139s0.032-0.111 0.027-0.168c0.004-0.057-0.005-0.114-0.028-0.167s-0.058-0.101-0.103-0.14c-0.116-0.079-0.26-0.117-0.404-0.106h-0.607v0.825zM1.757 24.47c0.050-0.039 0.089-0.089 0.114-0.144s0.036-0.115 0.032-0.175c0.004-0.061-0.008-0.121-0.034-0.177s-0.065-0.106-0.116-0.145c-0.121-0.082-0.269-0.122-0.419-0.114h-0.648v0.865h0.656c0.148 0.008 0.294-0.031 0.414-0.109z"></path>
<path d="M5.369 25.090l-0.804-1.229h-0.302v1.229h-0.691v-3.145h1.309c0.33-0.021 0.656 0.075 0.911 0.267 0.183 0.171 0.293 0.396 0.311 0.634s-0.058 0.475-0.214 0.667c-0.161 0.169-0.382 0.282-0.624 0.32l0.856 1.257h-0.752zM4.264 23.433h0.565c0.393 0 0.589-0.159 0.589-0.476 0.004-0.065-0.007-0.13-0.032-0.191s-0.063-0.116-0.113-0.163c-0.124-0.094-0.284-0.14-0.445-0.128h-0.572l0.007 0.957z"></path>
<path d="M9.148 24.457h-1.378l-0.243 0.633h-0.725l1.265-3.11h0.784l1.26 3.11h-0.725l-0.238-0.633zM8.963 23.981l-0.503-1.327-0.503 1.327h1.007z"></path>
<path d="M13.878 25.090h-0.686l-1.539-2.139v2.139h-0.685v-3.145h0.685l1.539 2.151v-2.151h0.686v3.145z"></path>
<path d="M17.794 24.338c-0.142 0.237-0.358 0.431-0.621 0.555-0.299 0.138-0.63 0.206-0.965 0.198h-1.222v-3.145h1.222c0.334-0.008 0.665 0.058 0.965 0.194 0.263 0.121 0.479 0.312 0.621 0.548 0.141 0.256 0.215 0.538 0.215 0.825s-0.074 0.569-0.215 0.825zM17.009 24.262c0.196-0.209 0.304-0.475 0.304-0.751s-0.108-0.542-0.304-0.75c-0.237-0.189-0.545-0.285-0.859-0.267h-0.476v2.036h0.476c0.314 0.018 0.622-0.078 0.859-0.267z"></path>
<path d="M9.578 4.453c0 0 8.858 3.062 8.67 7.493v7.494c0 0-8.851-3.063-8.666-7.494l-0.003-7.493z"></path>
<path d="M26.139 17.685c1.673-1.054 3.608-1.707 5.628-1.899v-2.346c-2.327 0.821-4.302 2.311-5.628 4.245z"></path>
<path d="M25.134 18.392c1.369-2.524 3.743-4.472 6.633-5.443v-6.76c0 0-12.615 4.362-12.348 10.671v10.67c0 0 0.562-0.195 1.446-0.561 0-0.341 0-0.685 0.040-1.031 0.261-2.929 1.782-5.644 4.228-7.546z"></path>
<path d="M23.934 22.356c0.066-0.74 0.214-1.472 0.441-2.185-1.523 1.643-2.446 3.682-2.638 5.83-0.018 0.203-0.029 0.406-0.034 0.615 0.716-0.315 1.55-0.708 2.426-1.171-0.224-1.016-0.29-2.056-0.196-3.090z"></path>
<path d="M24.436 22.394c-0.084 0.935-0.032 1.876 0.156 2.798 3.446-1.888 7.319-4.806 7.17-8.332v-0.307c-2.462 0.252-4.766 1.238-6.557 2.805-0.419 0.971-0.678 1.994-0.768 3.036z"></path>
</symbol>
<symbol id="icon-Object" viewBox="0 0 32 32">
<path d="M16.145 15.628c-0.151-0.201-0.223-0.438-0.206-0.677v-0.982c0-0.301 0.068-0.53 0.205-0.686s0.371-0.234 0.703-0.234c0.312 0 0.534 0.067 0.665 0.2 0.143 0.17 0.213 0.378 0.197 0.587v0.231h-0.559v-0.234c0.002-0.076-0.003-0.153-0.016-0.229-0.008-0.052-0.036-0.1-0.080-0.136-0.057-0.039-0.13-0.058-0.202-0.053-0.077-0.005-0.152 0.015-0.213 0.056-0.049 0.040-0.081 0.093-0.093 0.15-0.016 0.080-0.023 0.161-0.022 0.243v1.191c-0.009 0.115 0.016 0.23 0.072 0.335 0.028 0.035 0.066 0.063 0.111 0.081s0.095 0.024 0.144 0.019c0.072 0.005 0.143-0.014 0.198-0.054 0.046-0.039 0.075-0.090 0.083-0.145 0.013-0.079 0.019-0.159 0.017-0.239v-0.242h0.559v0.221c0.016 0.218-0.052 0.435-0.193 0.617-0.128 0.146-0.347 0.219-0.668 0.219s-0.564-0.078-0.702-0.24z"></path>
<path d="M18.47 15.638c-0.141-0.153-0.212-0.375-0.212-0.67v-1.032c0-0.292 0.071-0.512 0.212-0.662s0.377-0.224 0.708-0.224c0.328 0 0.563 0.075 0.704 0.224s0.213 0.37 0.213 0.662v1.032c0 0.292-0.072 0.515-0.215 0.669s-0.377 0.231-0.702 0.231c-0.325 0-0.566-0.078-0.708-0.23zM19.438 15.391c0.051-0.096 0.074-0.2 0.067-0.306v-1.264c0.006-0.103-0.016-0.206-0.066-0.3-0.028-0.036-0.068-0.065-0.114-0.082s-0.097-0.024-0.147-0.018c-0.050-0.006-0.101 0-0.148 0.018s-0.086 0.046-0.115 0.082c-0.051 0.093-0.074 0.196-0.067 0.3v1.27c-0.007 0.105 0.016 0.21 0.067 0.306 0.033 0.032 0.073 0.058 0.118 0.076s0.094 0.027 0.144 0.027c0.049 0 0.098-0.009 0.144-0.027s0.085-0.043 0.118-0.076v-0.006z"></path>
<path d="M20.767 13.080h0.601l0.452 1.905 0.463-1.905h0.585l0.059 2.749h-0.433l-0.046-1.911-0.446 1.911h-0.347l-0.463-1.918-0.043 1.918h-0.437l0.054-2.749z"></path>
<path d="M23.602 13.080h0.937c0.54 0 0.81 0.26 0.81 0.781 0 0.499-0.284 0.747-0.852 0.747h-0.319v1.222h-0.578l0.003-2.749zM24.402 14.255c0.057 0.006 0.115 0.002 0.17-0.013s0.105-0.040 0.148-0.074c0.066-0.093 0.096-0.202 0.083-0.31 0.003-0.084-0.006-0.168-0.028-0.25-0.008-0.027-0.023-0.053-0.043-0.075s-0.045-0.041-0.073-0.055c-0.080-0.033-0.169-0.048-0.258-0.044h-0.224v0.822h0.224z"></path>
<path d="M26.182 13.080h0.621l0.637 2.749h-0.539l-0.126-0.634h-0.554l-0.13 0.634h-0.547l0.637-2.749zM26.713 14.877l-0.216-1.154-0.216 1.154h0.433z"></path>
<path d="M27.955 13.080h0.405l0.775 1.568v-1.568h0.48v2.749h-0.385l-0.779-1.637v1.637h-0.496l0.001-2.749z"></path>
<path d="M30.739 14.782l-0.644-1.697h0.542l0.393 1.090 0.369-1.090h0.531l-0.636 1.697v1.048h-0.555v-1.048z"></path>
<path d="M17.038 17.032v0.144h-0.472v1.117h-0.198v-1.117h-0.474v-0.144h1.144z"></path>
<path d="M18.517 18.293h-0.153c-0.015 0.001-0.031-0.003-0.043-0.012-0.012-0.007-0.020-0.017-0.025-0.029l-0.136-0.3h-0.655l-0.136 0.3c-0.004 0.013-0.011 0.024-0.021 0.034-0.012 0.008-0.027 0.013-0.043 0.012h-0.153l0.578-1.261h0.201l0.585 1.256zM17.559 17.825h0.546l-0.231-0.513c-0.017-0.039-0.031-0.078-0.043-0.119-0.008 0.024-0.015 0.047-0.022 0.067l-0.021 0.053-0.229 0.512z"></path>
<path d="M19.514 18.169c0.036 0.002 0.073 0.002 0.109 0 0.031-0.003 0.062-0.008 0.093-0.015 0.028-0.006 0.056-0.014 0.083-0.023 0.025-0.009 0.051-0.020 0.077-0.031v-0.284h-0.231c-0.006 0-0.011-0-0.017-0.002s-0.010-0.004-0.014-0.008c-0.004-0.003-0.007-0.006-0.009-0.010s-0.003-0.008-0.003-0.013v-0.097h0.449v0.483c-0.037 0.023-0.075 0.043-0.116 0.060s-0.084 0.032-0.128 0.043c-0.047 0.012-0.096 0.021-0.145 0.026-0.056 0.005-0.112 0.008-0.169 0.008-0.1 0.001-0.199-0.015-0.291-0.047-0.087-0.030-0.165-0.075-0.231-0.132-0.064-0.058-0.115-0.125-0.149-0.2-0.036-0.084-0.055-0.172-0.053-0.262-0.001-0.090 0.016-0.179 0.052-0.264 0.033-0.075 0.084-0.143 0.149-0.2s0.145-0.101 0.231-0.131c0.099-0.032 0.204-0.048 0.31-0.047 0.054-0 0.108 0.004 0.161 0.011 0.047 0.007 0.093 0.017 0.138 0.032 0.040 0.013 0.079 0.030 0.116 0.050 0.035 0.020 0.069 0.042 0.101 0.066l-0.056 0.078c-0.004 0.007-0.011 0.013-0.019 0.017s-0.017 0.007-0.026 0.007c-0.013-0-0.025-0.004-0.036-0.010-0.017-0.008-0.036-0.018-0.057-0.030-0.025-0.013-0.051-0.025-0.077-0.034-0.034-0.012-0.070-0.021-0.106-0.028-0.048-0.008-0.098-0.011-0.147-0.011-0.076-0.001-0.152 0.011-0.223 0.035-0.064 0.022-0.122 0.056-0.17 0.1-0.048 0.045-0.085 0.099-0.108 0.157-0.052 0.137-0.052 0.284 0 0.42 0.025 0.059 0.065 0.113 0.116 0.159 0.047 0.043 0.105 0.077 0.169 0.1 0.074 0.022 0.151 0.030 0.229 0.025z"></path>
<path d="M21.357 18.149h0.631v0.144h-0.825v-1.261h0.198l-0.005 1.117z"></path>
<path d="M22.645 18.293h-0.198v-1.261h0.198v1.261z"></path>
<path d="M23.381 17.038c0.012 0.006 0.022 0.014 0.030 0.023l0.845 0.951c-0.001-0.015-0.001-0.030 0-0.045 0-0.014 0-0.028 0-0.041v-0.899h0.172v1.266h-0.099c-0.015 0.001-0.029-0.001-0.043-0.007-0.012-0.006-0.023-0.014-0.031-0.024l-0.844-0.95c0 0.015 0 0.029 0 0.043s0 0.027 0 0.039v0.899h-0.165v-1.261h0.103c0.011 0 0.022 0.002 0.032 0.006z"></path>
<path d="M25.885 17.032v0.139h-0.701v0.416h0.568v0.134h-0.568v0.43h0.701v0.139h-0.904v-1.258h0.904z"></path>
<path d="M5.161 9.244l8.781 2.153v7.543l-8.781-2.152v-7.544zM4.598 8.601v8.554l9.907 2.429v-8.553l-9.907-2.43z"></path>
<path d="M9.908 23.555l-9.908-2.431v-8.553l9.908 2.43v8.554z"></path>
<path d="M4.762 9.148l8.667 2.126-3.686 3.183-8.668-2.127 3.687-3.182zM4.598 8.601l-4.598 3.97 9.908 2.43 4.597-3.97-9.907-2.43z"></path>
<path d="M10.465 23.074l4.040-3.488-4.040-0.991v4.48z"></path>
</symbol>
<symbol id="icon-astronaut-1" viewBox="0 0 32 32">
<path fill="#f5f4fa" style="fill: var(--color4, #f5f4fa)" d="M1.067 0h69.867c0.589 0 1.067 0.478 1.067 1.067v29.867c0 0.589-0.478 1.067-1.067 1.067h-69.867c-0.589 0-1.067-0.478-1.067-1.067v-29.867c0-0.589 0.478-1.067 1.067-1.067z"></path>
<path fill="#2196f3" style="fill: var(--color2, #2196f3)" d="M45.318 9.306c-0.037-0.112-0.134-0.194-0.251-0.212l-1.114-0.162-0.499-1.010c-0.105-0.213-0.453-0.213-0.558 0l-0.499 1.010-1.115 0.162c-0.117 0.017-0.214 0.099-0.251 0.212s-0.006 0.236 0.079 0.319l0.807 0.786-0.19 1.11c-0.020 0.117 0.028 0.235 0.123 0.304 0.097 0.070 0.223 0.079 0.328 0.024l0.997-0.524 0.997 0.524c0.046 0.024 0.095 0.036 0.145 0.036 0.064 0 0.129-0.020 0.183-0.059 0.096-0.070 0.144-0.188 0.123-0.304l-0.19-1.11 0.807-0.786c0.085-0.083 0.115-0.206 0.079-0.319zM43.882 10.080c-0.073 0.071-0.107 0.175-0.089 0.275l0.111 0.65-0.583-0.307c-0.045-0.024-0.095-0.036-0.145-0.036s-0.099 0.012-0.145 0.036l-0.583 0.307 0.111-0.65c0.018-0.101-0.016-0.204-0.089-0.275l-0.473-0.46 0.653-0.095c0.101-0.015 0.189-0.078 0.234-0.17l0.292-0.591 0.292 0.591c0.046 0.092 0.133 0.156 0.234 0.17l0.653 0.095-0.472 0.46z"></path>
<path fill="#2196f3" style="fill: var(--color2, #2196f3)" d="M41.911 18.638h-0.622v0.622h0.622v-0.622z"></path>
<path fill="#2196f3" style="fill: var(--color2, #2196f3)" d="M41.911 19.882h-0.622v0.622h0.622v-0.622z"></path>
<path fill="#2196f3" style="fill: var(--color2, #2196f3)" d="M42.533 19.26h-0.622v0.622h0.622v-0.622z"></path>
<path fill="#2196f3" style="fill: var(--color2, #2196f3)" d="M41.289 19.26h-0.622v0.622h0.622v-0.622z"></path>
<path fill="#2196f3" style="fill: var(--color2, #2196f3)" d="M39.733 22.060h-0.622v0.622h0.622v-0.622z"></path>
<path fill="#2196f3" style="fill: var(--color2, #2196f3)" d="M39.733 23.305h-0.622v0.622h0.622v-0.622z"></path>
<path fill="#2196f3" style="fill: var(--color2, #2196f3)" d="M40.356 22.682h-0.622v0.622h0.622v-0.622z"></path>
<path fill="#2196f3" style="fill: var(--color2, #2196f3)" d="M39.111 22.682h-0.622v0.622h0.622v-0.622z"></path>
<path fill="#2196f3" style="fill: var(--color2, #2196f3)" d="M36 20.816h-0.622v0.622h0.622v-0.622z"></path>
<path fill="#2196f3" style="fill: var(--color2, #2196f3)" d="M36 22.060h-0.622v0.622h0.622v-0.622z"></path>
<path fill="#2196f3" style="fill: var(--color2, #2196f3)" d="M36.622 21.438h-0.622v0.622h0.622v-0.622z"></path>
<path fill="#2196f3" style="fill: var(--color2, #2196f3)" d="M35.378 21.438h-0.622v0.622h0.622v-0.622z"></path>
<path fill="#2196f3" style="fill: var(--color2, #2196f3)" d="M30.089 10.238h-0.622v0.622h0.622v-0.622z"></path>
<path fill="#2196f3" style="fill: var(--color2, #2196f3)" d="M30.089 11.482h-0.622v0.622h0.622v-0.622z"></path>
<path fill="#2196f3" style="fill: var(--color2, #2196f3)" d="M30.711 10.86h-0.622v0.622h0.622v-0.622z"></path>
<path fill="#2196f3" style="fill: var(--color2, #2196f3)" d="M29.467 10.86h-0.622v0.622h0.622v-0.622z"></path>
<path fill="#212121" style="fill: var(--color5, #212121)" d="M41.084 14.926c-0.168-0.226-0.414-0.372-0.693-0.411-0.281-0.040-0.558 0.034-0.782 0.205l-0.73 0.56-1.107 0.827-0.792-0.316c1.413-0.634 2.4-2.046 2.4-3.687 0-2.23-1.822-4.044-4.061-4.044s-4.061 1.814-4.061 4.044c0 0.808 0.242 1.56 0.653 2.192l-1.612-0.014c-0.001 0-0.002 0-0.003 0-0.005 0-0.009 0.002-0.014 0.003-0.031 0.001-0.061 0.007-0.091 0.018-0.007 0.003-0.015 0.004-0.022 0.008-0.004 0.002-0.007 0.002-0.011 0.004l-1.886 0.931c-0 0-0.001 0-0.001 0l-1.104 0.531c-0.012 0.005-0.025 0.012-0.037 0.021-0.44 0.293-0.59 0.869-0.349 1.339 0.129 0.25 0.347 0.434 0.616 0.519 0.104 0.032 0.209 0.048 0.315 0.048 0.169 0 0.336-0.041 0.49-0.123l0.81-0.431 1.321-0.682 0.791-0.005-3.174 3.159c-0 0-0.001 0-0.001 0.001l-0.781 0.778c-0.184 0.184-0.286 0.427-0.286 0.687s0.102 0.504 0.286 0.688c0.19 0.189 0.439 0.283 0.688 0.283s0.498-0.095 0.689-0.283l0.767-0.764 1.015-0.758 0.525 0.523-1.027 1.023c-0.001 0-0.001 0-0.001 0.001l-0.781 0.778c-0.185 0.184-0.286 0.427-0.286 0.687s0.102 0.504 0.286 0.688c0.189 0.189 0.439 0.283 0.688 0.283s0.499-0.095 0.689-0.283l2.031-2.022c0-0 0-0.001 0.001-0.001l0.589-0.583-0.002-0.002c0.004-0.004 0.009-0.005 0.013-0.009l3.013-3.301 2.025 0.288c0.015 0.002 0.029 0.003 0.044 0.003 0.038 0 0.074-0.009 0.109-0.022 0.010-0.004 0.019-0.009 0.029-0.014 0.011-0.006 0.023-0.009 0.034-0.016l1.874-1.244c0.007-0.005 0.011-0.012 0.017-0.017 0.007-0.006 0.017-0.008 0.024-0.015l0.742-0.695c0.386-0.362 0.439-0.954 0.124-1.378zM27.909 17.033c-0.101 0.054-0.216 0.065-0.326 0.030s-0.197-0.108-0.249-0.209c-0.094-0.183-0.039-0.406 0.125-0.526l0.766-0.369 0.185 0.539 0.077 0.226-0.579 0.308zM29.949 15.966l-0.903 0.467-0.149-0.436-0.107-0.313 1.182-0.584-0.023 0.866zM38.757 12.104c0 0.536-0.128 1.041-0.349 1.493l-2.439-1.108c-0.025-0.334-0.199-0.627-0.46-0.81l0.854-2.835c1.387 0.441 2.394 1.735 2.394 3.26zM31.881 12.104c0-1.887 1.542-3.422 3.438-3.422 0.147 0 0.292 0.012 0.435 0.030l-0.835 2.773c-0.011-0-0.022-0.003-0.033-0.003-0.602 0-1.093 0.488-1.093 1.089s0.49 1.089 1.093 1.089c0.405 0 0.755-0.224 0.944-0.551l2.253 1.024c-0.627 0.844-1.63 1.394-2.763 1.394-1.896 0-3.438-1.535-3.438-3.422zM35.355 12.571c0 0.257-0.211 0.467-0.47 0.467s-0.47-0.209-0.47-0.467 0.211-0.467 0.47-0.467c0.259 0 0.47 0.209 0.47 0.467zM28.105 21.335c-0.138 0.137-0.361 0.136-0.498 0-0.066-0.066-0.103-0.154-0.103-0.247s0.036-0.18 0.103-0.246l0.561-0.559 0.497 0.494-0.559 0.557zM29.979 23.513c-0.138 0.137-0.361 0.137-0.499 0-0.066-0.066-0.103-0.154-0.103-0.247s0.036-0.18 0.103-0.246l0.562-0.559 0.497 0.494-0.56 0.557zM32.010 21.49c-0 0-0.001 0-0.001 0.001l-1.030 1.027-0.497-0.494 1.029-1.024c0 0 0 0 0-0s0.001-0 0.001-0.001c0.023-0.023 0.038-0.051 0.052-0.079 0.004-0.008 0.012-0.015 0.015-0.023 0.010-0.024 0.011-0.050 0.015-0.075 0.002-0.014 0.008-0.028 0.008-0.042 0-0.021-0.007-0.041-0.012-0.062-0.004-0.019-0.004-0.038-0.011-0.056-0.012-0.029-0.032-0.055-0.053-0.080-0.006-0.007-0.008-0.016-0.015-0.022 0 0 0 0-0.001 0s-0-0.001-0.001-0.001l-0.937-0.933c-0.010-0.010-0.023-0.014-0.034-0.022-0.017-0.013-0.032-0.025-0.051-0.034s-0.036-0.014-0.055-0.019c-0.020-0.006-0.039-0.010-0.060-0.012-0.019-0.001-0.037 0.001-0.055 0.003-0.021 0.002-0.041 0.005-0.061 0.012s-0.037 0.016-0.055 0.026c-0.012 0.007-0.025 0.009-0.035 0.017l-1.035 0.772-0.525-0.523 1.399-1.392 2.543 2.502-0.541 0.536zM35.988 17.397c-0.009-0.001-0.017 0.002-0.026 0.002-0.023-0.001-0.044 0-0.067 0.004-0.018 0.003-0.034 0.007-0.051 0.012-0.020 0.007-0.038 0.016-0.056 0.027s-0.033 0.022-0.049 0.036c-0.007 0.006-0.017 0.010-0.023 0.017l-2.741 3.002-2.525-2.483 1.653-1.644c0.122-0.121 0.122-0.318 0.001-0.44-0.061-0.061-0.142-0.091-0.222-0.091v-0l-1.294 0.008 0.016-0.938 1.811 0.016c0.738 0.755 1.767 1.225 2.906 1.225 0.255 0 0.504-0.026 0.746-0.072 0.023 0.019 0.046 0.038 0.075 0.049l1.406 0.56 0.089 0.442 0.104 0.516-1.752-0.249zM38.345 17.5l-0.182-0.909 0.844-0.63 0.552 0.733-1.214 0.806zM40.535 15.849l-0.489 0.458-0.543-0.721 0.485-0.372c0.091-0.070 0.205-0.098 0.317-0.083 0.113 0.016 0.212 0.075 0.28 0.166 0.126 0.17 0.105 0.408-0.050 0.553z"></path>
<path fill="#212121" style="fill: var(--color5, #212121)" d="M34.601 17.484l-1.25-1.244c-0.121-0.121-0.318-0.121-0.439 0l-1.25 1.244c-0.058 0.059-0.091 0.138-0.091 0.221s0.033 0.162 0.091 0.221l1.25 1.244c0.061 0.060 0.14 0.091 0.219 0.091s0.159-0.030 0.219-0.091l1.25-1.244c0.058-0.058 0.092-0.138 0.092-0.221s-0.033-0.162-0.092-0.221zM33.132 18.51l-0.809-0.805 0.809-0.805 0.809 0.805-0.809 0.805z"></path>
<path fill="#212121" style="fill: var(--color5, #212121)" d="M36.679 9.625l-0.15 0.604c0.041 0.010 1.014 0.264 1.014 1.254h0.622c0-1.177-0.972-1.73-1.486-1.858z"></path>
<path fill="#212121" style="fill: var(--color5, #212121)" d="M38.165 12.104h-0.622v0.622h0.622v-0.622z"></path>

</symbol>
<symbol id="icon-Vector-3" viewBox="0 0 32 32">
<path fill="#f5f4fa" style="fill: var(--color4, #f5f4fa)" d="M1.067 0h69.867c0.589 0 1.067 0.478 1.067 1.067v29.867c0 0.589-0.478 1.067-1.067 1.067h-69.867c-0.589 0-1.067-0.478-1.067-1.067v-29.867c0-0.589 0.478-1.067 1.067-1.067z"></path>
<path fill="#2196f3" style="fill: var(--color2, #2196f3)" d="M35.373 15.396h0.622v2.799h-0.622v-2.799z"></path>
<path fill="#2196f3" style="fill: var(--color2, #2196f3)" d="M37.861 16.64h0.622v1.555h-0.622v-1.555z"></path>
<path fill="#2196f3" style="fill: var(--color2, #2196f3)" d="M32.886 17.573h0.622v0.622h-0.622v-0.622z"></path>
<path fill="#2196f3" style="fill: var(--color2, #2196f3)" d="M31.020 17.262h0.622v0.933h-0.622v-0.933z"></path>
<path fill="#212121" style="fill: var(--color5, #212121)" d="M27.599 23.17h14.926c0.515 0 0.933-0.418 0.933-0.933v-1.244c0-0.515-0.418-0.933-0.933-0.933h-0.311v-7.754l1.766-1.673c0.41 0.202 0.906 0.079 1.174-0.291s0.231-0.88-0.089-1.207-0.829-0.375-1.205-0.115c-0.376 0.26-0.51 0.754-0.317 1.168l-1.331 1.262v-0.717c0-0.515-0.418-0.933-0.933-0.933h-12.438c-0.515 0-0.933 0.418-0.933 0.933v9.328h-0.311c-0.515 0-0.933 0.418-0.933 0.933v1.244c0 0.515 0.418 0.933 0.933 0.933zM44.391 9.488c0.172 0 0.311 0.139 0.311 0.311s-0.139 0.311-0.311 0.311c-0.172 0-0.311-0.139-0.311-0.311s0.139-0.311 0.311-0.311zM28.532 10.732c0-0.172 0.139-0.311 0.311-0.311h12.438c0.172 0 0.311 0.139 0.311 0.311v1.306l-0.622 0.591v-1.275c0-0.172-0.139-0.311-0.311-0.311h-11.194c-0.172 0-0.311 0.139-0.311 0.311v7.774c0 0.172 0.139 0.311 0.311 0.311h11.194c0.171 0 0.311-0.139 0.311-0.311v-5.643l0.622-0.589v7.165h-13.060v-9.328zM31.331 14.774c-0.421-0.001-0.79 0.279-0.902 0.685s0.061 0.836 0.423 1.050c0.362 0.215 0.822 0.161 1.125-0.132l1.081 0.542c0.126 0.063 0.278 0.033 0.371-0.072l2.298-2.585 2.259 1.692c0.121 0.091 0.29 0.081 0.4-0.023l1.963-1.859v4.743h-10.572v-7.152h10.572v1.552l-2.2 2.083-2.278-1.707c-0.129-0.097-0.311-0.079-0.419 0.042l-2.329 2.621-0.871-0.435c0.006-0.037 0.010-0.075 0.012-0.113 0-0.515-0.418-0.933-0.933-0.933zM31.642 15.707c0 0.172-0.139 0.311-0.311 0.311s-0.311-0.139-0.311-0.311c0-0.172 0.139-0.311 0.311-0.311s0.311 0.139 0.311 0.311zM33.507 20.682h3.11v0.311c0 0.172-0.139 0.311-0.311 0.311h-2.488c-0.172 0-0.311-0.139-0.311-0.311v-0.311zM27.289 20.993c0-0.172 0.139-0.311 0.311-0.311h5.286v0.311c0 0.515 0.418 0.933 0.933 0.933h2.488c0.515 0 0.933-0.418 0.933-0.933v-0.311h5.286c0.172 0 0.311 0.139 0.311 0.311v1.244c0 0.172-0.139 0.311-0.311 0.311h-14.926c-0.172 0-0.311-0.139-0.311-0.311v-1.244z"></path></symbol>
<symbol id="icon-Vector-2" viewBox="0 0 31 32">
<path fill="#f5f4fa" style="fill: var(--color4, #f5f4fa)" d="M1.067 0h69.867c0.589 0 1.067 0.478 1.067 1.067v29.867c0 0.589-0.478 1.067-1.067 1.067h-69.867c-0.589 0-1.067-0.478-1.067-1.067v-29.867c0-0.589 0.478-1.067 1.067-1.067z"></path>
<path fill="#212121" style="fill: var(--color5, #212121)" d="M44.923 15.592c-0.001-4.931-3.999-8.927-8.93-8.926s-8.927 3.999-8.926 8.93c0.001 3.884 2.512 7.321 6.212 8.503 0.035 0.011 0.072 0.017 0.109 0.017 0.070-0 0.139-0.019 0.2-0.055 0.079-0.047 0.138-0.121 0.165-0.208l2.255-7.146c0.616-0.003 1.113-0.505 1.11-1.122s-0.505-1.113-1.122-1.11c-0.166 0.001-0.329 0.039-0.478 0.112l-2.978-2.979c-0.148-0.143-0.383-0.139-0.526 0.009-0.139 0.144-0.139 0.373 0 0.517l2.977 2.98c-0.228 0.466-0.098 1.029 0.313 1.347l-2.148 6.809c-4.245-1.564-6.419-6.273-4.855-10.518s6.273-6.419 10.519-4.855c4.245 1.564 6.419 6.273 4.855 10.518-0.764 2.074-2.334 3.752-4.353 4.651l-0.232-1.093c-0.042-0.201-0.24-0.329-0.441-0.287-0.063 0.014-0.122 0.043-0.171 0.086l-2.238 1.998c-0.154 0.137-0.167 0.372-0.031 0.525 0.045 0.050 0.102 0.087 0.165 0.107l2.858 0.912c0.195 0.063 0.405-0.045 0.468-0.24 0.020-0.062 0.023-0.128 0.010-0.191l-0.228-1.073c3.304-1.393 5.449-4.633 5.442-8.219zM35.995 15.22c0.205 0 0.372 0.167 0.372 0.372s-0.167 0.372-0.372 0.372c-0.206 0-0.372-0.166-0.372-0.372s0.166-0.372 0.372-0.372zM37.221 23.891l1.274-1.136 0.352 1.657-1.626-0.52z"></path>
<path fill="#2196f3" style="fill: var(--color2, #2196f3)" d="M35.623 8.525v0.744c0 0.206 0.166 0.372 0.372 0.372s0.372-0.166 0.372-0.372v-0.744c0-0.205-0.167-0.372-0.372-0.372s-0.372 0.167-0.372 0.372z"></path>
<path fill="#2196f3" style="fill: var(--color2, #2196f3)" d="M28.928 15.22c-0.206 0-0.372 0.167-0.372 0.372s0.166 0.372 0.372 0.372h0.744c0.205 0 0.372-0.166 0.372-0.372s-0.167-0.372-0.372-0.372h-0.744z"></path>
<path fill="#2196f3" style="fill: var(--color2, #2196f3)" d="M43.063 15.964c0.205 0 0.372-0.166 0.372-0.372s-0.167-0.372-0.372-0.372h-0.744c-0.205 0-0.372 0.167-0.372 0.372s0.167 0.372 0.372 0.372h0.744z"></path></symbol>
<symbol id="icon-Vector-1" viewBox="0 0 30 32">
<path fill="#f5f4fa" style="fill: var(--color4, #f5f4fa)" d="M1.067 0h69.867c0.589 0 1.067 0.478 1.067 1.067v29.867c0 0.589-0.478 1.067-1.067 1.067h-69.867c-0.589 0-1.067-0.478-1.067-1.067v-29.867c0-0.589 0.478-1.067 1.067-1.067z"></path>
<path fill="#212121" style="fill: var(--color5, #212121)" d="M44.618 19.557l-4.925-4.961 0.547-2.692c0.141 0.055 0.291 0.084 0.442 0.085h0.004c0.695 0.008 1.266-0.549 1.274-1.244s-0.549-1.266-1.245-1.274c-0.695-0.008-1.266 0.549-1.274 1.244-0.002 0.149 0.023 0.297 0.073 0.437l-2.893 0.353-4.719-4.744c-0.058-0.059-0.137-0.093-0.22-0.093-0.082 0-0.16 0.033-0.218 0.091l-0.882 0.877c-0.122 0.122-0.122 0.318 0 0.44l0.475 0.482c-1.839 3.382-1.242 7.57 1.47 10.303 0.025 0.024 0.054 0.043 0.085 0.057-0.020 0.105-0.030 0.212-0.030 0.319v3.609h-3.733c-0.859 0.001-1.555 0.697-1.556 1.556v0.622c0 0.172 0.139 0.311 0.311 0.311h14.311c0.172 0 0.311-0.139 0.311-0.311v-0.622c-0.001-0.859-0.697-1.555-1.555-1.556h-3.733v-1.599c0.585 0.123 1.181 0.185 1.778 0.187 1.434-0.002 2.845-0.359 4.107-1.040l0.477 0.48c0.058 0.059 0.137 0.093 0.22 0.093 0.082-0 0.16-0.033 0.218-0.091l0.882-0.877c0.122-0.122 0.122-0.318 0-0.44zM40.247 10.303c0.243-0.242 0.638-0.241 0.88 0.002s0.241 0.638-0.002 0.88c-0.117 0.116-0.274 0.181-0.439 0.181h-0.002c-0.343-0.002-0.621-0.282-0.619-0.625 0.001-0.165 0.067-0.322 0.183-0.438h-0.001zM39.514 12.347l-0.349 1.718-0.686-0.69 1.035-1.029zM39.161 11.821l-1.12 1.113-0.866-0.871 1.986-0.242zM40.669 23.467c0.515 0 0.933 0.418 0.933 0.933v0.311h-13.689v-0.311c0-0.515 0.418-0.933 0.933-0.933h11.822zM36.314 22.222v0.622h-3.111v-0.622h3.111zM33.202 21.6v-2.364c0-0.755 0.698-1.369 1.555-1.369s1.556 0.614 1.556 1.369v2.364h-3.111zM36.936 20.611v-1.375c0-1.098-0.977-1.991-2.178-1.991-0.776-0.012-1.502 0.383-1.914 1.042-2.367-2.493-2.9-6.21-1.329-9.268l10.851 10.913c-1.675 0.852-3.596 1.092-5.43 0.679zM43.521 20.212l-12.283-12.355 0.44-0.439 4.629 4.655c0.002 0 0.003 0.004 0.006 0.006l7.65 7.695-0.441 0.439z"></path>
<path fill="#2196f3" style="fill: var(--color2, #2196f3)" d="M34.761 18.489h-0.003c-0.515-0.001-0.934 0.416-0.935 0.932s0.417 0.934 0.932 0.935h0.003c0.515 0.001 0.934-0.416 0.935-0.932s-0.417-0.934-0.932-0.935zM34.978 19.643c-0.058 0.058-0.138 0.091-0.221 0.091-0.172-0.001-0.31-0.141-0.309-0.313 0-0.082 0.033-0.161 0.092-0.219s0.136-0.090 0.218-0.091c0.172 0.001 0.31 0.141 0.31 0.313-0.001 0.082-0.033 0.161-0.092 0.219h0.003z"></path>
</symbol>
<symbol id="icon-envelope-hover" viewBox="0 0 32 32">
<path fill="#757575" style="fill: var(--color2, #757575)" d="M38.667 0h-34.667c-2.206 0-4 1.794-4 4v24c0 2.206 1.794 4 4 4h34.667c2.206 0 4-1.794 4-4v-24c0-2.206-1.794-4-4-4zM38.667 2.667c0.181 0 0.353 0.038 0.511 0.103l-17.844 15.466-17.844-15.466c0.158-0.066 0.33-0.103 0.511-0.103h34.667zM38.667 29.333h-34.667c-0.736 0-1.333-0.598-1.333-1.333v-22.413l17.793 15.421c0.251 0.217 0.563 0.326 0.874 0.326s0.622-0.108 0.874-0.326l17.793-15.421v22.413c0 0.736-0.598 1.333-1.333 1.333z"></path></symbol>
<symbol id="icon-facebook-1" viewBox="0 0 32 32">
<path d="M21.329 5.313h2.921v-5.088c-0.504-0.069-2.237-0.225-4.256-0.225-4.212 0-7.097 2.649-7.097 7.519v4.481h-4.648v5.688h4.648v14.312h5.699v-14.311h4.46l0.708-5.688h-5.169v-3.919c0.001-1.644 0.444-2.769 2.735-2.769z"></path>
</symbol>
<symbol id="icon-instagram-2" viewBox="0 0 32 32">
<path d="M31.969 9.408c-0.075-1.7-0.35-2.869-0.744-3.882-0.406-1.075-1.032-2.038-1.851-2.838-0.8-0.813-1.769-1.444-2.832-1.844-1.019-0.394-2.182-0.669-3.882-0.744-1.713-0.081-2.257-0.1-6.601-0.1s-4.888 0.019-6.595 0.094c-1.7 0.075-2.869 0.35-3.882 0.744-1.075 0.406-2.038 1.031-2.838 1.85-0.813 0.8-1.444 1.769-1.844 2.832-0.394 1.019-0.669 2.182-0.744 3.882-0.081 1.713-0.1 2.257-0.1 6.601s0.019 4.888 0.094 6.595c0.075 1.7 0.35 2.869 0.744 3.882 0.406 1.075 1.038 2.038 1.85 2.838 0.8 0.813 1.769 1.444 2.832 1.844 1.019 0.394 2.182 0.669 3.882 0.744 1.706 0.075 2.25 0.094 6.595 0.094s4.888-0.019 6.595-0.094c1.7-0.075 2.869-0.35 3.882-0.744 2.151-0.832 3.851-2.532 4.682-4.682 0.394-1.019 0.669-2.182 0.744-3.882 0.075-1.707 0.094-2.251 0.094-6.595s-0.006-4.888-0.081-6.595zM29.087 22.473c-0.069 1.563-0.331 2.407-0.55 2.969-0.538 1.394-1.644 2.5-3.038 3.038-0.563 0.219-1.413 0.481-2.969 0.55-1.688 0.075-2.194 0.094-6.464 0.094s-4.782-0.019-6.464-0.094c-1.563-0.069-2.407-0.331-2.969-0.55-0.694-0.256-1.325-0.663-1.838-1.194-0.531-0.519-0.938-1.144-1.194-1.838-0.219-0.563-0.481-1.413-0.55-2.969-0.075-1.688-0.094-2.194-0.094-6.464s0.019-4.782 0.094-6.464c0.069-1.563 0.331-2.407 0.55-2.969 0.256-0.694 0.663-1.325 1.2-1.838 0.519-0.531 1.144-0.938 1.838-1.194 0.563-0.219 1.413-0.481 2.969-0.55 1.688-0.075 2.194-0.094 6.464-0.094 4.276 0 4.782 0.019 6.464 0.094 1.563 0.069 2.407 0.331 2.969 0.55 0.694 0.256 1.325 0.662 1.838 1.194 0.531 0.519 0.938 1.144 1.194 1.838 0.219 0.563 0.481 1.413 0.55 2.969 0.075 1.688 0.094 2.194 0.094 6.464s-0.019 4.77-0.094 6.458z"></path>
<path d="M16.059 7.783c-4.538 0-8.22 3.682-8.22 8.22s3.682 8.22 8.22 8.22c4.538 0 8.22-3.682 8.22-8.22s-3.682-8.22-8.22-8.22zM16.059 21.335c-2.944 0-5.332-2.388-5.332-5.332s2.388-5.332 5.332-5.332c2.944 0 5.332 2.388 5.332 5.332s-2.388 5.332-5.332 5.332z"></path>
<path d="M26.524 7.458c0 1.060-0.859 1.919-1.919 1.919s-1.919-0.859-1.919-1.919c0-1.060 0.859-1.919 1.919-1.919s1.919 0.859 1.919 1.919z"></path>
</symbol>
<symbol id="icon-linkedin-1" viewBox="0 0 32 32">
<path d="M31.992 32v-0.001h0.008v-11.736c0-5.741-1.236-10.164-7.948-10.164-3.227 0-5.392 1.771-6.276 3.449h-0.093v-2.913h-6.364v21.364h6.627v-10.579c0-2.785 0.528-5.479 3.977-5.479 3.399 0 3.449 3.179 3.449 5.657v10.401h6.62z"></path>
<path d="M0.528 10.636h6.635v21.364h-6.635v-21.364z"></path>
<path d="M3.843 0c-2.121 0-3.843 1.721-3.843 3.843s1.721 3.879 3.843 3.879c2.121 0 3.843-1.757 3.843-3.879-0.001-2.121-1.723-3.843-3.843-3.843v0z"></path>
</symbol>
<symbol id="icon-twitter-1" viewBox="0 0 32 32">
<path d="M32 6.078c-1.19 0.522-2.458 0.868-3.78 1.036 1.36-0.812 2.398-2.088 2.886-3.626-1.268 0.756-2.668 1.29-4.16 1.588-1.204-1.282-2.92-2.076-4.792-2.076-3.632 0-6.556 2.948-6.556 6.562 0 0.52 0.044 1.020 0.152 1.496-5.454-0.266-10.28-2.88-13.522-6.862-0.566 0.982-0.898 2.106-0.898 3.316 0 2.272 1.17 4.286 2.914 5.452-1.054-0.020-2.088-0.326-2.964-0.808 0 0.020 0 0.046 0 0.072 0 3.188 2.274 5.836 5.256 6.446-0.534 0.146-1.116 0.216-1.72 0.216-0.42 0-0.844-0.024-1.242-0.112 0.85 2.598 3.262 4.508 6.13 4.57-2.232 1.746-5.066 2.798-8.134 2.798-0.538 0-1.054-0.024-1.57-0.090 2.906 1.874 6.35 2.944 10.064 2.944 12.072 0 18.672-10 18.672-18.668 0-0.29-0.010-0.57-0.024-0.848 1.302-0.924 2.396-2.078 3.288-3.406z"></path>
</symbol>
<symbol id="icon-Vector" viewBox="0 0 32 32">
<path fill="#757575" style="fill: var(--color6, #757575)" d="M17 0h-14c-1.654 0-3 1.346-3 3v26c0 1.654 1.346 3 3 3h14c1.654 0 3-1.346 3-3v-26c0-1.654-1.346-3-3-3zM3 2h14c0.552 0 1 0.448 1 1v21h-16v-21c0-0.552 0.448-1 1-1zM17 30h-14c-0.552 0-1-0.448-1-1v-3h16v3c0 0.552-0.448 1-1 1z"></path>
<path fill="#757575" style="fill: var(--color6, #757575)" d="M4.707 27.478c0.391 0.365 0.391 0.956 0 1.321s-1.024 0.365-1.414 0c-0.391-0.365-0.391-0.956 0-1.321s1.024-0.365 1.414 0z"></path></symbol>
</defs>
</svg>
